<svg xmlns="http://www.w3.org/2000/svg" width="40" height="40" viewBox="0 0 40 40"><defs><linearGradient id="netlify-gradient" x1="0%" x2="100%" y1="0%" y2="100%"><stop offset="0%" style="stop-color:#20c6b7"/><stop offset="100%" style="stop-color:#4d9abf"/></linearGradient></defs><path fill="url(#netlify-gradient)" d="M28.589 14.135l-.014-.006c-.008-.003-.016-.006-.023-.013a.11.11 0 0 1-.028-.093l.773-4.726 3.625 3.626-3.77 1.604a.083.083 0 0 1-.063-.392zM20.006 9.134l5.91 5.91a.182.182 0 0 1-.02.29l-5.877 2.504a.115.115 0 0 1-.158-.111V9.238c0-.091.125-.129.145-.104zm-1.03-.014v8.63a.116.116 0 0 1-.158.109l-5.878-2.504a.181.181 0 0 1-.02-.29l5.91-5.91c.02-.025.146.013.146.104v-.14zm-6.95 6.373l3.626-3.625.773 4.726a.11.11 0 0 1-.028.093c-.007.007-.015.01-.023.013l-.014.006a.083.083 0 0 1-.063.39l-3.77-1.603zm-.714 1.903l3.648 1.554a.11.11 0 0 1 .063.088c0 .009.003.017.003.026 0 .016-.005.032-.006.048l-.744 4.548-2.964-2.965 2.964-2.964zm.39 6.51l3.277 3.278-3.94 1.654a.083.083 0 0 1-.105-.048c-.015-.037-.02-.077-.013-.116l.781-4.768zm4.276 4.277l5.863 2.432a.118.118 0 0 1 .078.108v4.277l-7.944-4.563 2.003-2.254zm6.885 2.54a.119.119 0 0 1 .078-.108l5.864-2.432 2.003 2.254-7.945 4.563v-4.277zm6.856-3.34l3.278-3.277.78 4.768c.008.039.002.08-.012.116a.083.083 0 0 1-.106.048l-3.94-1.655zm4.277-4.277l-2.964-2.964 2.964-2.964-.744 4.548c-.001.016-.006.032-.006.048 0 .009.003.017.003.026a.11.11 0 0 1 .063.088l3.648-1.554-2.964 2.964zm-2.107-6.51l-3.77 1.604a.083.083 0 0 1-.064-.39l-.014-.007c-.007-.003-.015-.006-.023-.013a.11.11 0 0 1-.028-.093l.773-4.726 3.126 3.625zm-4.151-4.65l-4.71.728a.115.115 0 0 1-.122-.075l-2.024-4.818 6.856 4.165zm-7.747.56l-4.71-.728 6.856-4.165-2.024 4.818a.115.115 0 0 1-.122.075zm-5.71-.728l3.126-3.625.773 4.726a.11.11 0 0 1-.028.093c-.008.007-.016.01-.023.013l-.014.006a.083.083 0 0 1-.064.39l-3.77-1.603z"/></svg>